<svg width="128" height="128" viewBox="0 0 128 128" fill="none" xmlns="http://www.w3.org/2000/svg">
<rect width="128" height="128" fill="white"/>
<rect x="64.498" y="61.3074" width="31.33" height="31.33" rx="8" transform="rotate(-135 64.498 61.3074)" fill="#D9D9D9"/>
<rect x="64.498" y="61.3074" width="31.33" height="31.33" rx="8" transform="rotate(-135 64.498 61.3074)" fill="url(#paint0_linear_1310_3300)"/>
<rect x="39.1523" y="86.3074" width="31.33" height="31.33" rx="8" transform="rotate(-135 39.1523 86.3074)" fill="#D1A8FF"/>
<rect x="89.459" y="86.3074" width="31.33" height="31.33" rx="8" transform="rotate(-135 89.459 86.3074)" fill="#D1A8FF"/>
<path d="M58.8408 72.9645C61.965 69.8403 67.0301 69.8403 70.1543 72.9645L80.9941 83.8043C84.1183 86.9285 84.1183 91.9936 80.9941 95.1178L70.1543 105.958C67.6017 108.51 63.7543 108.976 60.7275 107.357C62.8544 102.508 61.9144 97.5413 60.7773 94.9996H47.8877C44.8784 91.8672 44.9154 86.8899 48.001 83.8043L58.8408 72.9645Z" fill="#D9D9D9"/>
<path d="M58.8408 72.9645C61.965 69.8403 67.0301 69.8403 70.1543 72.9645L80.9941 83.8043C84.1183 86.9285 84.1183 91.9936 80.9941 95.1178L70.1543 105.958C67.6017 108.51 63.7543 108.976 60.7275 107.357C62.8544 102.508 61.9144 97.5413 60.7773 94.9996H47.8877C44.8784 91.8672 44.9154 86.8899 48.001 83.8043L58.8408 72.9645Z" fill="url(#paint1_linear_1310_3300)"/>
<defs>
<linearGradient id="paint0_linear_1310_3300" x1="95.8281" y1="76.9724" x2="64.498" y2="76.9724" gradientUnits="userSpaceOnUse">
<stop stop-color="#1CABBB"/>
<stop offset="1" stop-color="#14C5B7"/>
</linearGradient>
<linearGradient id="paint1_linear_1310_3300" x1="83.3374" y1="89.4605" x2="45.6582" y2="89.4605" gradientUnits="userSpaceOnUse">
<stop stop-color="#1CABBB"/>
<stop offset="1" stop-color="#14C5B7"/>
</linearGradient>
</defs>
</svg>
