<svg width="20" height="27" viewBox="0 0 20 27" fill="none" xmlns="http://www.w3.org/2000/svg">
<path d="M1.57426 13.7604C1.58095 13.5264 1.62774 13.3125 1.71464 13.1187C1.80155 12.9248 1.93524 12.7376 2.11573 12.5571L12.1629 2.8308C12.4504 2.54335 12.8047 2.39963 13.2258 2.39963C13.5066 2.39963 13.7606 2.46648 13.9879 2.60017C14.2218 2.73387 14.4057 2.91436 14.5394 3.14164C14.6798 3.36892 14.7499 3.62294 14.7499 3.9037C14.7499 4.31816 14.5929 4.68248 14.2787 4.99666L5.19407 13.7504L14.2787 22.5141C14.5929 22.835 14.7499 23.1993 14.7499 23.6071C14.7499 23.8945 14.6798 24.1519 14.5394 24.3792C14.4057 24.6064 14.2218 24.7869 13.9879 24.9206C13.7606 25.061 13.5066 25.1312 13.2258 25.1312C12.8047 25.1312 12.4504 24.9841 12.1629 24.69L2.11573 14.9637C1.92856 14.7832 1.79152 14.596 1.70462 14.4021C1.61771 14.2016 1.57426 13.9877 1.57426 13.7604Z" fill="#007AFF"/>
</svg>
